<svg xmlns="http://www.w3.org/2000/svg" viewBox="0 0 87.2861 88.5413" fill="none">
<path fill-rule="evenodd" clip-rule="evenodd" d="M14.3587 8.20492C10.9601 8.20492 8.20492 10.9601 8.20492 14.3587V74.1826C8.20492 77.5813 10.96 80.3364 14.3587 80.3364H34.3396C36.6053 80.3364 38.442 82.1731 38.442 84.4388C38.442 86.7046 36.6053 88.5413 34.3396 88.5413H14.3587C6.42859 88.5413 0 82.1127 0 74.1826V14.3587C0 6.42861 6.42859 0 14.3587 0H72.9274C80.8575 0 87.2861 6.42859 87.2861 14.3587V74.1826C87.2861 82.1127 80.8575 88.5413 72.9274 88.5413H57.0686C53.6046 88.5413 50.232 87.2959 47.6095 84.9661C41.3797 79.4317 33.8467 72.3631 27.8527 64.7375C21.9613 57.2424 17.0063 48.5318 17.0063 39.7731C17.0063 33.0028 19.059 26.3576 23.6268 21.3589C28.253 16.2963 35.0851 13.3346 43.7838 13.3346C52.5718 13.3346 59.2102 16.5142 63.5805 21.7139C67.8557 26.8003 69.6166 33.4038 69.6166 39.7731C69.6166 46.0607 67.0584 51.8731 64.0651 56.8267C61.7326 60.6869 58.9113 64.3655 56.5027 67.506C55.8389 68.3716 55.2064 69.1963 54.6241 69.9726C53.2647 71.7852 50.6933 72.1526 48.8807 70.7931C47.0681 69.4337 46.7008 66.8623 48.0602 65.0497C48.7454 64.1361 49.4488 63.2183 50.1584 62.2922C52.5288 59.199 54.97 56.0135 57.0427 52.5833C59.7182 48.1557 61.4116 43.8781 61.4116 39.7731C61.4116 34.8048 60.0288 30.2403 57.2995 26.9931C54.6655 23.8592 50.4387 21.5395 43.7838 21.5395C37.0397 21.5395 32.5343 23.7742 29.6837 26.8937C26.7746 30.0773 25.2112 34.6 25.2112 39.7731C25.2112 45.6578 28.6777 52.51 34.3033 59.667C39.8264 66.6935 46.9061 73.3662 53.0588 78.8321C54.1469 79.7988 55.5691 80.3364 57.0686 80.3364H72.9274C76.326 80.3364 79.0811 77.5813 79.0811 74.1826V14.3587C79.0811 10.96 76.326 8.20492 72.9274 8.20492H14.3587Z" fill="#0075CF"/>
<circle cx="43.6432" cy="37.7262" r="7.60902" fill="#FFB200"/>
</svg>
